<?xml version="1.0" standalone="no"?>
<!DOCTYPE svg PUBLIC "-//W3C//DTD SVG 20010904//EN"
 "http://www.w3.org/TR/2001/REC-SVG-20010904/DTD/svg10.dtd">
<svg version="1.0" xmlns="http://www.w3.org/2000/svg"
 width="5751.000000pt" height="5751.000000pt" viewBox="0 0 5751.000000 5751.000000"
 preserveAspectRatio="xMidYMid meet">
<metadata>
Created by potrace 1.11, written by Peter Selinger 2001-2013
</metadata>
<g transform="translate(0.000000,5751.000000) scale(0.100000,-0.100000)"
fill="#000000" stroke="none">
<path d="M37457 57503 c-2 -5 -3 -4517 -3 -10028 l1 -10020 10028 -1 10027 -1
0 10029 0 10028 -10024 0 c-5514 0 -10027 -3 -10029 -7z"/>
<path d="M0 18727 l0 -18727 18728 2 18727 3 1 18723 c1 10297 -1 18723 -5
18723 -3 1 -8431 2 -18728 3 l-18723 1 0 -18728z m22160 13459 c56 -7 73 -11
130 -27 25 -7 50 -13 55 -15 76 -17 285 -129 379 -204 88 -69 281 -258 1017
-992 730 -729 848 -850 861 -889 28 -81 13 -126 -89 -282 -119 -182 -193 -309
-261 -449 -72 -147 -102 -214 -102 -225 0 -4 -7 -21 -16 -38 -55 -106 -169
-515 -198 -710 -2 -16 -7 -50 -11 -75 -4 -25 -8 -56 -10 -70 -27 -181 -27
-627 0 -828 13 -96 17 -124 31 -202 8 -47 22 -112 31 -145 15 -61 20 -83 29
-122 7 -34 94 -305 109 -338 7 -16 34 -79 60 -139 47 -109 127 -268 172 -338
12 -21 23 -40 23 -43 0 -11 142 -220 214 -315 145 -193 351 -406 541 -561 334
-273 701 -474 1120 -614 107 -35 345 -98 415 -110 19 -3 42 -8 50 -10 8 -2 35
-7 60 -10 25 -3 52 -8 60 -10 26 -7 399 -38 455 -38 48 0 270 13 296 18 13 2
53 6 88 10 85 8 182 22 271 40 14 3 39 8 55 10 106 19 405 102 480 135 11 4
38 15 60 23 243 90 486 225 777 430 110 78 180 92 259 51 38 -19 1770 -1757
1843 -1849 31 -38 60 -75 66 -82 59 -73 147 -252 183 -373 34 -114 40 -155 40
-290 -1 -204 -63 -397 -196 -604 -65 -103 -243 -286 -1628 -1673 -1594 -1597
-1516 -1523 -1589 -1493 -17 7 -64 49 -103 93 -114 127 -186 199 -274 273
-136 114 -162 133 -237 168 -285 134 -616 -11 -737 -323 -49 -124 -30 -310 42
-433 70 -118 259 -329 409 -457 115 -99 130 -121 115 -178 -4 -19 -2106 -2128
-6753 -6776 -3711 -3712 -6893 -6895 -7072 -7074 -330 -330 -416 -408 -550
-496 -224 -146 -421 -198 -705 -186 -52 3 -189 33 -270 60 -200 68 -313 150
-589 426 -55 56 -292 293 -526 528 -234 234 -566 564 -739 733 -340 333 -371
371 -371 457 0 66 21 108 133 272 246 358 415 722 517 1113 7 25 14 52 15 60
2 8 9 38 15 65 16 67 19 82 26 129 3 22 7 43 9 46 2 3 6 34 10 70 3 35 8 67
10 70 10 17 19 204 20 395 0 199 -7 336 -20 420 -3 17 -9 59 -14 95 -12 79
-17 105 -36 195 -8 39 -17 79 -19 90 -46 224 -200 613 -338 854 -26 46 -48 85
-48 87 0 3 -158 242 -171 258 -5 6 -36 47 -71 91 -200 259 -466 517 -724 701
-329 234 -725 422 -1104 521 -81 21 -219 51 -270 58 -24 4 -47 8 -50 10 -3 1
-30 6 -61 9 -31 4 -66 8 -77 11 -137 26 -631 26 -818 0 -163 -23 -198 -29
-344 -60 -107 -23 -358 -100 -470 -145 -244 -97 -526 -249 -715 -386 -190
-136 -281 -163 -386 -111 -56 27 -81 51 -420 401 -85 87 -417 420 -737 740
-572 569 -656 658 -740 782 -90 134 -173 337 -189 462 -10 76 -10 233 0 305
27 194 148 432 322 634 5 6 3203 3204 7105 7107 3902 3902 7107 7101 7122
7107 59 24 89 2 177 -131 54 -83 175 -214 276 -301 169 -146 210 -176 291
-214 81 -38 132 -48 234 -48 185 -1 347 91 455 258 99 154 110 337 30 510 -63
138 -301 410 -460 526 -133 97 -152 113 -169 141 -24 40 -19 72 18 120 32 42
2880 2890 2983 2984 201 183 461 309 678 331 33 3 61 7 63 8 4 4 120 -2 172
-9z"/>
<path d="M19745 26880 c-235 -65 -400 -266 -411 -500 -3 -74 0 -96 25 -167 90
-259 385 -575 670 -718 84 -43 200 -74 256 -70 178 13 278 57 376 162 159 172
204 407 114 595 -69 146 -331 439 -505 567 -93 68 -198 122 -274 140 -65 16
-177 12 -251 -9z"/>
<path d="M21718 25005 c-2 -2 -20 -6 -41 -9 -106 -17 -232 -92 -314 -189 -70
-83 -123 -219 -125 -320 -3 -186 127 -425 352 -649 158 -157 354 -281 487
-308 142 -30 332 22 440 119 175 160 240 387 170 590 -27 76 -102 197 -195
312 -167 207 -451 416 -604 445 -38 7 -165 14 -170 9z"/>
<path d="M23625 23113 c-51 -5 -146 -34 -205 -61 -35 -17 -82 -53 -128 -100
-146 -148 -206 -352 -155 -527 7 -26 54 -127 65 -140 4 -5 42 -55 84 -110 117
-155 217 -253 441 -433 41 -33 181 -99 228 -107 46 -8 146 -8 190 0 86 16 198
72 279 140 141 117 211 331 165 505 -66 254 -322 554 -634 747 -103 63 -229
96 -330 86z"/>
<path d="M25538 21215 c-2 -1 -26 -5 -55 -9 -252 -30 -463 -272 -465 -532 -1
-134 42 -241 166 -409 170 -233 435 -450 615 -505 79 -25 204 -27 286 -5 187
50 347 204 402 387 19 65 21 199 3 253 -92 281 -415 626 -714 765 -44 21 -99
41 -121 44 -54 9 -113 14 -117 11z"/>
</g>
</svg>
