<?xml version="1.0" standalone="no"?>
<!DOCTYPE svg PUBLIC "-//W3C//DTD SVG 20010904//EN"
 "http://www.w3.org/TR/2001/REC-SVG-20010904/DTD/svg10.dtd">
<svg version="1.0" xmlns="http://www.w3.org/2000/svg"
 width="300.000000pt" height="300.000000pt" viewBox="0 0 300.000000 300.000000"
 preserveAspectRatio="xMidYMid meet">
<metadata>
Created by potrace 1.11, written by Peter Selinger 2001-2013
</metadata>
<g transform="translate(0.000000,300.000000) scale(0.100000,-0.100000)"
fill="#000000" stroke="none">
<path d="M1960 2480 l0 -520 -980 0 -980 0 0 -980 0 -980 980 0 980 0 0 980 0
980 520 0 520 0 0 520 0 520 -520 0 -520 0 0 -520z m-410 -1040 l0 -50 -255 0
-255 0 0 -690 0 -690 -60 0 -60 0 0 690 0 690 -255 0 -255 0 0 50 0 50 570 0
570 0 0 -50z"/>
</g>
</svg>
